<?xml version="1.0" encoding="utf-8"?>
<!-- Generator: Adobe Illustrator 18.0.0, SVG Export Plug-In . SVG Version: 6.00 Build 0)  -->
<!DOCTYPE svg PUBLIC "-//W3C//DTD SVG 1.1//EN" "http://www.w3.org/Graphics/SVG/1.1/DTD/svg11.dtd">
<svg version="1.1" id="Capa_1" xmlns="http://www.w3.org/2000/svg" xmlns:xlink="http://www.w3.org/1999/xlink" x="0px" y="0px"
	 viewBox="0 0 200 200" enable-background="new 0 0 200 200" xml:space="preserve">
<polyline fill="none" stroke="#010202" stroke-width="6" points="-1788.3,141.5 -1765.6,141.5 -1765.6,72.6 -1720.8,72.6 
	-1720.8,144.7 -1701.3,144.7 "/>
<polygon fill="#070708" points="-1736.4,55.7 -1765.6,72.6 -1765.6,144.7 -1736.4,160.9 "/>
<rect x="-728.1" y="103.1" fill="#010202" stroke="#010202" stroke-width="6" width="97.9" height="31.2"/>
<rect x="-714.8" y="65.4" fill="none" stroke="#010202" stroke-width="6" width="72.8" height="37.7"/>
<line fill="none" stroke="#010202" stroke-width="6" x1="-678.4" y1="65.4" x2="-678.4" y2="103.1"/>
<line fill="none" stroke="#010202" stroke-width="6" x1="-728.1" y1="137.6" x2="-728.1" y2="147.3"/>
<line fill="none" stroke="#010202" stroke-width="6" x1="-630.2" y1="134.3" x2="-630.2" y2="147.3"/>
<path fill="none" stroke="#010202" stroke-width="6" d="M55.4,116c9.3,9.3,25.1,15.4,43,15.4c28.7,0,51.9-15.6,51.9-34.8"/>
<line fill="none" stroke="#010202" stroke-width="6" x1="150.3" y1="96.6" x2="56" y2="96.6"/>
<line fill="none" stroke="#010202" stroke-width="6" x1="56" y1="116.6" x2="56" y2="55.1"/>
<line fill="none" stroke="#010202" stroke-width="6" x1="56" y1="55.1" x2="80.7" y2="55.1"/>
</svg>
