<?xml version="1.0" encoding="utf-8"?>
<!-- Generator: Adobe Illustrator 18.0.0, SVG Export Plug-In . SVG Version: 6.00 Build 0)  -->
<!DOCTYPE svg PUBLIC "-//W3C//DTD SVG 1.1//EN" "http://www.w3.org/Graphics/SVG/1.1/DTD/svg11.dtd">
<svg version="1.1" id="Capa_1" xmlns="http://www.w3.org/2000/svg" xmlns:xlink="http://www.w3.org/1999/xlink" x="0px" y="0px"
	 viewBox="0 0 200 200" enable-background="new 0 0 200 200" xml:space="preserve">
<circle fill="none" stroke="#010202" stroke-width="8" cx="88.6" cy="85.6" r="42.1"/>
<line fill="none" stroke="#010202" stroke-width="8" x1="120.2" y1="113.3" x2="155" y2="149.3"/>
<path fill="none" stroke="#010202" stroke-width="8" d="M580.7,102.4C578.9,100.3,582.1,104.8,580.7,102.4c-3.7-6.5-5.8-14-5.8-22
	c0-24.8,20.1-45,45-45s45,20.1,45,45s-20.1,45-45,45c-4.1,0-8.1-0.5-11.9-1.6"/>
<polyline fill="none" stroke="#010202" stroke-width="8" points="611.7,123.5 578.1,126.9 580.7,102.4 "/>
<path fill="none" stroke="#010202" stroke-width="8" d="M639.7,120c0,20,16.2,36.2,36.2,36.2c3.3,0,6.5-0.4,9.5-1.3"/>
<path fill="none" stroke="#010202" stroke-width="8" d="M707.4,137.8C708.8,136.1,706.3,139.7,707.4,137.8
	c2.9-5.2,4.6-11.3,4.6-17.7c0-20-16.2-36.2-36.2-36.2c-3,0-6,0.4-8.8,1.1"/>
<polyline fill="none" stroke="#010202" stroke-width="8" points="681.5,154.7 709.5,157.5 707.4,137.8 "/>
<polygon fill="none" stroke="#010202" stroke-width="8" points="1241.2,42.8 1122,98.1 1178.9,111.1 1224.8,147.6 "/>
<line fill="none" stroke="#010202" stroke-width="8" x1="1178.9" y1="111.1" x2="1206.9" y2="80.4"/>
<circle fill="none" stroke="#010202" stroke-width="8" cx="1728.6" cy="70" r="29.9"/>
<path fill="none" stroke="#010202" stroke-width="8" d="M1684.7,147.6"/>
<path fill="none" stroke="#010202" stroke-width="8" d="M1772.7,145.4c0-16.5-20.2-29.8-45.2-29.8s-45.2,13.3-45.2,29.8
	s20.2,20.4,45.2,20.4S1772.7,161.8,1772.7,145.4z"/>
</svg>
