<?xml version="1.0" encoding="utf-8"?>
<!-- Generator: Adobe Illustrator 18.0.0, SVG Export Plug-In . SVG Version: 6.00 Build 0)  -->
<!DOCTYPE svg PUBLIC "-//W3C//DTD SVG 1.1//EN" "http://www.w3.org/Graphics/SVG/1.1/DTD/svg11.dtd">
<svg version="1.1" id="Capa_1" xmlns="http://www.w3.org/2000/svg" xmlns:xlink="http://www.w3.org/1999/xlink" x="0px" y="0px"
	 viewBox="0 0 200 200" enable-background="new 0 0 200 200" xml:space="preserve">
<polyline fill="none" stroke="#010202" stroke-width="6" points="55.3,133.5 78,133.5 78,64.6 122.9,64.6 122.9,136.7 142.3,136.7 
	"/>
<polygon fill="#070708" points="107.3,47.7 78,64.6 78,136.7 107.3,152.9 "/>
<rect x="1115.5" y="95.1" fill="#010202" stroke="#010202" stroke-width="6" width="97.9" height="31.2"/>
<rect x="1128.8" y="57.4" fill="none" stroke="#010202" stroke-width="6" width="72.8" height="37.7"/>
<line fill="none" stroke="#010202" stroke-width="6" x1="1165.2" y1="57.4" x2="1165.2" y2="95.1"/>
<line fill="none" stroke="#010202" stroke-width="6" x1="1115.5" y1="129.6" x2="1115.5" y2="139.3"/>
<line fill="none" stroke="#010202" stroke-width="6" x1="1213.4" y1="126.3" x2="1213.4" y2="139.3"/>
<path fill="none" stroke="#010202" stroke-width="6" d="M1899.1,108c9.3,9.3,25.1,15.4,43,15.4c28.7,0,51.9-15.6,51.9-34.8"/>
<line fill="none" stroke="#010202" stroke-width="6" x1="1994" y1="88.6" x2="1899.6" y2="88.6"/>
<line fill="none" stroke="#010202" stroke-width="6" x1="1899.6" y1="108.6" x2="1899.6" y2="47.1"/>
<line fill="none" stroke="#010202" stroke-width="6" x1="1899.6" y1="47.1" x2="1924.3" y2="47.1"/>
</svg>
