<?xml version="1.0" encoding="utf-8"?>
<!-- Generator: Adobe Illustrator 18.0.0, SVG Export Plug-In . SVG Version: 6.00 Build 0)  -->
<!DOCTYPE svg PUBLIC "-//W3C//DTD SVG 1.1//EN" "http://www.w3.org/Graphics/SVG/1.1/DTD/svg11.dtd">
<svg version="1.1" id="Capa_1" xmlns="http://www.w3.org/2000/svg" xmlns:xlink="http://www.w3.org/1999/xlink" x="0px" y="0px"
	 viewBox="0 0 200 200" enable-background="new 0 0 200 200" xml:space="preserve">
<circle fill="none" stroke="#010202" stroke-width="8" cx="-1538.4" cy="85.6" r="42.1"/>
<line fill="none" stroke="#010202" stroke-width="8" x1="-1506.8" y1="113.3" x2="-1472" y2="149.3"/>
<path fill="none" stroke="#010202" stroke-width="8" d="M-1046.3,102.4C-1048.1,100.3-1044.9,104.8-1046.3,102.4
	c-3.7-6.5-5.8-14-5.8-22c0-24.8,20.1-45,45-45s45,20.1,45,45s-20.1,45-45,45c-4.1,0-8.1-0.5-11.9-1.6"/>
<polyline fill="none" stroke="#010202" stroke-width="8" points="-1015.3,123.5 -1048.9,126.9 -1046.3,102.4 "/>
<path fill="none" stroke="#010202" stroke-width="8" d="M-987.3,120c0,20,16.2,36.2,36.2,36.2c3.3,0,6.5-0.4,9.5-1.3"/>
<path fill="none" stroke="#010202" stroke-width="8" d="M-919.6,137.8C-918.2,136.1-920.7,139.7-919.6,137.8
	c2.9-5.2,4.6-11.3,4.6-17.7c0-20-16.2-36.2-36.2-36.2c-3,0-6,0.4-8.8,1.1"/>
<polyline fill="none" stroke="#010202" stroke-width="8" points="-945.5,154.7 -917.5,157.5 -919.6,137.8 "/>
<polygon fill="none" stroke="#010202" stroke-width="8" points="-385.8,42.8 -505,98.1 -448.1,111.1 -402.2,147.6 "/>
<line fill="none" stroke="#010202" stroke-width="8" x1="-448.1" y1="111.1" x2="-420.1" y2="80.4"/>
<circle fill="none" stroke="#FFFFFF" stroke-width="8" cx="99.6" cy="70" r="29.9"/>
<path fill="none" stroke="#FFFFFF" stroke-width="8" d="M55.7,147.6"/>
<path fill="none" stroke="#FFFFFF" stroke-width="8" d="M143.7,145.4c0-16.5-20.2-29.8-45.2-29.8s-45.2,13.3-45.2,29.8
	s20.2,20.4,45.2,20.4S143.7,161.8,143.7,145.4z"/>
</svg>
